# xmcd
#
# Track frame offsets:
#	150
#	12302
#	27005
#	48078
#	69003
#	86025
#	110758
#	127769
#	143086
#	159387
#	180761
#	196378
#	220832
#	238900
#
# Disc length: 3460 seconds
# Revision: 0
# Processed by: cddbd v1.5.2PL0 Copyright (c) Steve Scherf et al.
# Submitted via: dBpowerAMP V12.0
#
DISCID=ad0d820e
DTITLE=Various Artist - Red, White and Blue Élan: Our Americana Sound
DYEAR=2018
DGENRE=Country
TTITLE0=Chelsea Williams - Lovesick Blues
TTITLE1=Jesse Dayton - Burnin'
TTITLE2=Rod Melancon - Lord Knows
TTITLE3=Janiva Magness - On And On
TTITLE4=Rita Coolidge and Keb' Mo' - Walking On Water
TTITLE5=The Vegabonds - Everything I Need
TTITLE6=Red Wanting Blue - High And Dry
TTITLE7=Chelsea Williams - Honey, Honey
TTITLE8=Jesse Dayton - May Have To Do It (Don't Have To Like It)
TTITLE9=Rod Melancon - Westgate
TTITLE10=Red Wanting Blue - Ulysses
TTITLE11=Rita Coolidge - Naked All Night
TTITLE12=The Vegabonds - Partyin' With Strangers
TTITLE13=Janiva Magness and Bryan Stephens - Love Is An Army
EXTD=
EXTT0=
EXTT1=
EXTT2=
EXTT3=
EXTT4=
EXTT5=
EXTT6=
EXTT7=
EXTT8=
EXTT9=
EXTT10=
EXTT11=
EXTT12=
EXTT13=
PLAYORDER=
